<?xml version="1.0" standalone="no"?><!DOCTYPE svg PUBLIC "-//W3C//DTD SVG 1.1//EN" "http://www.w3.org/Graphics/SVG/1.1/DTD/svg11.dtd"><svg t="1770715057912" class="icon" viewBox="0 0 1389 1024" version="1.1" xmlns="http://www.w3.org/2000/svg" p-id="4970" xmlns:xlink="http://www.w3.org/1999/xlink" width="271.2890625" height="200"><path d="M855.771429 958.171429c-7.314286 0-14.628571 7.314286-21.942858 7.314285-7.314286 7.314286-7.314286 14.628571-7.314285 21.942857s7.314286 14.628571 7.314285 21.942858c7.314286 7.314286 14.628571 7.314286 21.942858 7.314285 7.314286 0 14.628571-7.314286 21.942857-7.314285 7.314286-7.314286 7.314286-14.628571 7.314285-21.942858s-7.314286-14.628571-7.314285-21.942857c-7.314286-7.314286-14.628571-7.314286-21.942857-7.314285z m-160.914286 0c-21.942857 0-36.571429 14.628571-36.571429 36.571428s14.628571 29.257143 36.571429 29.257143 36.571429-14.628571 36.571428-36.571429-14.628571-29.257143-36.571428-29.257142z m-160.914286 0c-7.314286 0-14.628571 7.314286-21.942857 7.314285-7.314286 7.314286-7.314286 14.628571-7.314286 21.942857 0 7.314286 7.314286 14.628571 7.314286 21.942858 7.314286 7.314286 14.628571 14.628571 21.942857 14.628571s14.628571-7.314286 21.942857-7.314286c7.314286-7.314286 7.314286-14.628571 7.314286-21.942857s-7.314286-14.628571-7.314286-21.942857c0-14.628571-7.314286-14.628571-21.942857-14.628571z m0-160.914286c-21.942857 0-36.571429 14.628571-36.571428 36.571428s14.628571 36.571429 36.571428 36.571429 36.571429-14.628571 36.571429-36.571429-14.628571-36.571429-36.571429-36.571428z m0-160.914286c-7.314286 0-14.628571 7.314286-21.942857 14.628572-7.314286 7.314286-7.314286 14.628571-7.314286 21.942857 0 7.314286 7.314286 14.628571 7.314286 21.942857 7.314286 7.314286 14.628571 7.314286 21.942857 7.314286s14.628571-7.314286 21.942857-7.314286c7.314286-7.314286 7.314286-14.628571 7.314286-21.942857 0-7.314286-7.314286-14.628571-7.314286-21.942857 0-7.314286-7.314286-14.628571-21.942857-14.628572z m160.914286 0c-21.942857 0-36.571429 21.942857-36.571429 36.571429 0 21.942857 14.628571 36.571429 36.571429 36.571428s36.571429-14.628571 36.571428-36.571428c0-14.628571-14.628571-36.571429-36.571428-36.571429z m160.914286 0c-7.314286 0-14.628571 7.314286-21.942858 7.314286-7.314286 7.314286-7.314286 14.628571-7.314285 21.942857 0 7.314286 7.314286 14.628571 7.314285 21.942857 7.314286 7.314286 14.628571 7.314286 21.942858 7.314286 7.314286 0 14.628571-7.314286 21.942857-7.314286s7.314286-14.628571 7.314285-21.942857c0-7.314286-7.314286-14.628571-7.314285-21.942857s-14.628571-7.314286-21.942857-7.314286z m0 160.914286c-21.942857 0-36.571429 14.628571-36.571429 36.571428s14.628571 36.571429 36.571429 36.571429 36.571429-14.628571 36.571428-36.571429c-7.314286-21.942857-21.942857-36.571429-36.571428-36.571428z m497.371428-160.914286h-124.342857V512c0-21.942857-14.628571-36.571429-36.571429-36.571429H731.428571V387.657143h124.342858c21.942857 0 36.571429-14.628571 36.571428-36.571429V36.571429c0-21.942857-14.628571-36.571429-36.571428-36.571429H533.942857c-14.628571 0-29.257143 14.628571-29.257143 36.571429v314.514285c0 21.942857 14.628571 36.571429 36.571429 36.571429H658.285714v95.085714H190.171429c-14.628571 0-29.257143 14.628571-29.257143 29.257143v124.342857H36.571429c-21.942857 0-36.571429 21.942857-36.571429 36.571429v314.514285c0 21.942857 14.628571 36.571429 36.571429 36.571429h314.514285c21.942857 0 36.571429-14.628571 36.571429-36.571429V672.914286c-7.314286-14.628571-21.942857-36.571429-36.571429-36.571429H226.742857V548.571429h936.228572v87.771428h-124.342858c-21.942857 0-36.571429 14.628571-36.571428 36.571429v314.514285c0 21.942857 14.628571 36.571429 36.571428 36.571429h314.514286c21.942857 0 36.571429-14.628571 36.571429-36.571429V672.914286c0-14.628571-14.628571-36.571429-36.571429-36.571429z m-1038.628571 73.142857v248.685715H65.828571V709.485714h248.685715z m256-394.971428V65.828571h248.685714v248.685715H570.514286z m753.371428 643.657143h-248.685714V709.485714h248.685714v248.685715z" p-id="4971"></path></svg>